<svg width="68" height="16" viewBox="0 0 68 16" fill="none" xmlns="http://www.w3.org/2000/svg">
<path d="M4.03711 13.1172C3.34961 13.1172 2.76953 12.9805 2.29688 12.707C1.82812 12.4336 1.47461 12.0469 1.23633 11.5469C0.998047 11.0469 0.878906 10.459 0.878906 9.7832C0.878906 9.29492 0.921875 8.82227 1.00781 8.36523C1.09766 7.9082 1.22656 7.47656 1.39453 7.07031C1.5625 6.66016 1.76953 6.28711 2.01562 5.95117C2.26562 5.61133 2.55078 5.31836 2.87109 5.07227C3.19141 4.82617 3.54492 4.63672 3.93164 4.50391C4.32227 4.36719 4.74414 4.29883 5.19727 4.29883C6.1582 4.29883 6.9082 4.59766 7.44727 5.19531C7.99023 5.78906 8.26172 6.61523 8.26172 7.67383C8.26172 8.14648 8.22266 8.60938 8.14453 9.0625C8.06641 9.51172 7.94922 9.93945 7.79297 10.3457C7.63672 10.752 7.44141 11.125 7.20703 11.4648C6.97266 11.8008 6.69922 12.0918 6.38672 12.3379C6.07422 12.584 5.72266 12.7754 5.33203 12.9121C4.94141 13.0488 4.50977 13.1172 4.03711 13.1172ZM4.07227 12.2441C4.4082 12.2441 4.71875 12.1855 5.00391 12.0684C5.28906 11.9512 5.54688 11.7871 5.77734 11.5762C6.01172 11.3652 6.2168 11.1172 6.39258 10.832C6.57227 10.5469 6.72266 10.2344 6.84375 9.89453C6.96484 9.55078 7.05664 9.18945 7.11914 8.81055C7.18164 8.43164 7.21289 8.04492 7.21289 7.65039C7.21289 6.86914 7.02734 6.26172 6.65625 5.82812C6.28906 5.39453 5.7793 5.17773 5.12695 5.17773C4.79102 5.17773 4.47852 5.23438 4.18945 5.34766C3.90039 5.45703 3.63672 5.61523 3.39844 5.82227C3.16016 6.02539 2.94922 6.26758 2.76562 6.54883C2.58594 6.83008 2.43359 7.14258 2.30859 7.48633C2.18359 7.82617 2.08789 8.1875 2.02148 8.57031C1.95898 8.95312 1.92773 9.34961 1.92773 9.75977C1.92773 10.2754 2.01172 10.7188 2.17969 11.0898C2.34766 11.4609 2.5918 11.7461 2.91211 11.9453C3.23242 12.1445 3.61914 12.2441 4.07227 12.2441ZM8.94727 13L10.3242 6.54883H11.1855L11.0332 7.78516H11.0449C11.1934 7.58203 11.3711 7.37695 11.5781 7.16992C11.7891 6.95898 12.0332 6.7832 12.3105 6.64258C12.5918 6.49805 12.9102 6.42578 13.2656 6.42578C13.6094 6.42578 13.9043 6.49023 14.1504 6.61914C14.3965 6.74414 14.5859 6.92773 14.7188 7.16992C14.8516 7.4082 14.918 7.69727 14.918 8.03711C14.918 8.2168 14.9043 8.39844 14.877 8.58203C14.8496 8.76562 14.8203 8.92969 14.7891 9.07422L13.9336 13H12.8965L13.7637 8.94531C13.7988 8.76953 13.8262 8.61914 13.8457 8.49414C13.8691 8.36914 13.8809 8.25195 13.8809 8.14258C13.8809 7.86914 13.8066 7.66211 13.6582 7.52148C13.5098 7.38086 13.291 7.31055 13.002 7.31055C12.7168 7.31055 12.416 7.4082 12.0996 7.60352C11.7832 7.79883 11.4902 8.10742 11.2207 8.5293C10.9512 8.94727 10.7422 9.49414 10.5938 10.1699L9.99023 13H8.94727ZM15.8906 13L17.8359 3.88281H18.8086L16.8691 13H15.8906ZM18.2578 15.8887C18.0664 15.8887 17.9121 15.877 17.7949 15.8535C17.6738 15.8301 17.5566 15.8008 17.4434 15.7656V14.9746C17.5488 15.002 17.666 15.0254 17.7949 15.0449C17.9238 15.0684 18.0605 15.0801 18.2051 15.0801C18.5254 15.0801 18.8008 14.9785 19.0312 14.7754C19.2617 14.5723 19.4863 14.2734 19.7051 13.8789L20.1562 13.0762L19.1719 6.57812H20.1562L20.6016 9.87695C20.6406 10.1348 20.6719 10.4121 20.6953 10.709C20.7188 11.002 20.7363 11.2812 20.748 11.5469C20.7598 11.8086 20.7656 12.0215 20.7656 12.1855H20.8008C20.8555 12.0566 20.9375 11.8711 21.0469 11.6289C21.1562 11.3828 21.2734 11.127 21.3984 10.8613C21.5234 10.5957 21.6348 10.373 21.7324 10.1934L23.6602 6.57812H24.7031L20.5898 14.1133C20.3789 14.5039 20.1621 14.8301 19.9395 15.0918C19.7207 15.3574 19.4766 15.5566 19.207 15.6895C18.9375 15.8223 18.6211 15.8887 18.2578 15.8887Z" fill="url(#paint0_linear_3_18)"/>
<path d="M26.1934 13L28.0039 4.43359H30.2949L29.6387 7.60938H31.6777L32.334 4.43359H34.6309L32.8145 13H30.5234L31.2559 9.50781H29.2285L28.4844 13H26.1934ZM37.6836 13.1172C37.125 13.1172 36.6504 13.0117 36.2598 12.8008C35.8691 12.5898 35.5703 12.2891 35.3633 11.8984C35.1602 11.5039 35.0586 11.0352 35.0586 10.4922C35.0586 9.94922 35.1348 9.42383 35.2871 8.91602C35.4434 8.4082 35.6777 7.95312 35.9902 7.55078C36.3066 7.14844 36.7031 6.83008 37.1797 6.5957C37.6562 6.36133 38.2168 6.24414 38.8613 6.24414C39.6074 6.24414 40.1914 6.41211 40.6133 6.74805C41.0391 7.08398 41.252 7.53125 41.252 8.08984C41.252 8.45703 41.1816 8.79102 41.041 9.0918C40.9004 9.38867 40.6836 9.64453 40.3906 9.85938C40.1016 10.0742 39.7324 10.2402 39.2832 10.3574C38.834 10.4707 38.3008 10.5273 37.6836 10.5273H37.3379C37.3379 10.543 37.3379 10.5586 37.3379 10.5742C37.3379 10.5859 37.3379 10.6016 37.3379 10.6211C37.3379 10.918 37.418 11.1367 37.5781 11.2773C37.7383 11.418 37.9785 11.4883 38.2988 11.4883C38.6348 11.4883 38.9531 11.4375 39.2539 11.3359C39.5547 11.2344 39.877 11.0938 40.2207 10.9141V12.5195C39.8652 12.6992 39.498 12.8438 39.1191 12.9531C38.7402 13.0625 38.2617 13.1172 37.6836 13.1172ZM37.5664 9.10938H37.7363C38.0762 9.10938 38.3457 9.06445 38.5449 8.97461C38.7441 8.88477 38.8867 8.77148 38.9727 8.63477C39.0586 8.49805 39.1016 8.36133 39.1016 8.22461C39.1016 8.09961 39.0625 7.99414 38.9844 7.9082C38.9062 7.82227 38.7812 7.7793 38.6094 7.7793C38.4336 7.7793 38.2715 7.84766 38.123 7.98438C37.9746 8.12109 37.8516 8.29297 37.7539 8.5C37.6562 8.70312 37.5938 8.90625 37.5664 9.10938ZM41.6504 13L43.0508 6.36133H44.8613L44.791 7.28711H44.8379C44.9824 7.03711 45.1426 6.83594 45.3184 6.68359C45.4941 6.53125 45.6914 6.41992 45.9102 6.34961C46.1328 6.2793 46.3848 6.24414 46.666 6.24414C47.0801 6.24414 47.4141 6.33008 47.668 6.50195C47.9258 6.67383 48.1152 6.90234 48.2363 7.1875C48.3574 7.47266 48.418 7.78711 48.418 8.13086C48.418 8.34961 48.4043 8.57617 48.377 8.81055C48.3496 9.04102 48.3145 9.26172 48.2715 9.47266L47.5273 13H45.2598L46.0156 9.37891C46.0391 9.27734 46.0625 9.14844 46.0859 8.99219C46.1094 8.83203 46.1211 8.68359 46.1211 8.54688C46.1211 8.37891 46.0781 8.25391 45.9922 8.17188C45.9062 8.08594 45.8027 8.04297 45.6816 8.04297C45.5332 8.04297 45.3906 8.10547 45.2539 8.23047C45.1211 8.35156 44.998 8.53906 44.8848 8.79297C44.7754 9.04297 44.6797 9.36523 44.5977 9.75977L43.918 13H41.6504ZM51.3828 13.1172C50.8047 13.1172 50.3652 12.9941 50.0645 12.748C49.7676 12.498 49.6191 12.0898 49.6191 11.5234C49.6191 11.3633 49.6328 11.1797 49.6602 10.9727C49.6914 10.7656 49.7246 10.582 49.7598 10.4219L50.252 8.06641H49.3496L49.5898 6.95312L50.8672 6.4375L51.6699 5.03125H53.1816L52.8945 6.36133H54.582L54.2129 8.06641H52.5195L52.0273 10.3105C52.0039 10.4238 51.9824 10.5391 51.9629 10.6562C51.9434 10.7695 51.9336 10.8594 51.9336 10.9258C51.9336 11.0586 51.9668 11.1543 52.0332 11.2129C52.1035 11.2676 52.1934 11.2949 52.3027 11.2949C52.4512 11.2949 52.6191 11.2695 52.8066 11.2188C52.9941 11.1641 53.1836 11.0977 53.375 11.0195V12.7246C53.1289 12.8457 52.8418 12.9414 52.5137 13.0117C52.1895 13.082 51.8125 13.1172 51.3828 13.1172ZM53.7559 13L58.1152 4.43359H61.0625L61.7832 13H59.5508L59.4922 11.3945H56.8672L56.1348 13H53.7559ZM57.7051 9.56641H59.4219L59.334 7.10547C59.3301 6.91406 59.3262 6.72461 59.3223 6.53711C59.3184 6.34961 59.3184 6.17188 59.3223 6.00391H59.2871C59.2285 6.18359 59.1641 6.35938 59.0938 6.53125C59.0273 6.70312 58.9531 6.87891 58.8711 7.05859L57.7051 9.56641ZM62.7676 13L64.5781 4.43359H66.8691L65.0586 13H62.7676Z" fill="url(#paint1_linear_3_18)"/>
<defs>
<linearGradient id="paint0_linear_3_18" x1="12.5" y1="2.08696" x2="12.5" y2="16" gradientUnits="userSpaceOnUse">
<stop offset="0.210798" stop-color="#62CFF8"/>
<stop offset="0.495066" stop-color="#F3B454"/>
<stop offset="0.714501" stop-color="#ED68EF"/>
</linearGradient>
<linearGradient id="paint1_linear_3_18" x1="47" y1="2.08696" x2="47" y2="16" gradientUnits="userSpaceOnUse">
<stop offset="0.210798" stop-color="#62CFF8"/>
<stop offset="0.495066" stop-color="#F3B454"/>
<stop offset="0.714501" stop-color="#ED68EF"/>
</linearGradient>
</defs>
</svg>
