<svg width="48" height="41" viewBox="0 0 48 41" fill="none" xmlns="http://www.w3.org/2000/svg">
<path d="M9.75586 32.293C7.92969 32.293 6.40625 31.9512 5.18555 31.2676C3.97461 30.584 3.06152 29.627 2.44629 28.3965C1.83105 27.1562 1.52344 25.7061 1.52344 24.0459C1.52344 22.9326 1.62598 21.8242 1.83105 20.7207C2.03613 19.6172 2.34863 18.5527 2.76855 17.5273C3.18848 16.4922 3.71582 15.5352 4.35059 14.6562C4.98535 13.7773 5.73242 13.0107 6.5918 12.3564C7.45117 11.6924 8.42285 11.1748 9.50684 10.8037C10.6006 10.4326 11.8115 10.2471 13.1396 10.2471C15.7764 10.2471 17.7734 10.999 19.1309 12.5029C20.498 14.0068 21.1816 16.0039 21.1816 18.4941C21.1816 19.6074 21.0791 20.7207 20.874 21.834C20.6787 22.9375 20.376 24.0068 19.9658 25.042C19.5654 26.0674 19.0527 27.0195 18.4277 27.8984C17.8027 28.7773 17.0654 29.5488 16.2158 30.2129C15.376 30.8672 14.4189 31.3799 13.3447 31.751C12.2705 32.1123 11.0742 32.293 9.75586 32.293ZM10.2539 27.5615C10.7324 27.5615 11.1914 27.4541 11.6309 27.2393C12.0703 27.0244 12.4805 26.7217 12.8613 26.3311C13.252 25.9307 13.5986 25.457 13.9014 24.9102C14.2139 24.3535 14.4824 23.7432 14.707 23.0791C14.9316 22.4053 15.1025 21.6875 15.2197 20.9258C15.3369 20.1641 15.3955 19.373 15.3955 18.5527C15.3955 17.4492 15.1611 16.5801 14.6924 15.9453C14.2236 15.3105 13.5449 14.9932 12.6562 14.9932C12.1191 14.9932 11.6162 15.1152 11.1475 15.3594C10.6787 15.6035 10.2441 15.9404 9.84375 16.3701C9.45312 16.7998 9.10156 17.3027 8.78906 17.8789C8.47656 18.4551 8.20801 19.0801 7.9834 19.7539C7.76855 20.4277 7.60254 21.126 7.48535 21.8486C7.37793 22.5713 7.32422 23.2939 7.32422 24.0166C7.32422 24.7881 7.43164 25.4375 7.64648 25.9648C7.87109 26.4922 8.19824 26.8926 8.62793 27.166C9.06738 27.4297 9.60938 27.5615 10.2539 27.5615ZM22.6025 32L27.1289 10.584H32.8564L31.2158 18.5234H36.3135L37.9541 10.584H43.6963L39.1553 32H33.4277L35.2588 23.2695H30.1904L28.3301 32H22.6025Z" fill="url(#paint0_linear_3_3)"/>
<defs>
<linearGradient id="paint0_linear_3_3" x1="23" y1="11.5" x2="24" y2="41" gradientUnits="userSpaceOnUse">
<stop offset="0.019518" stop-color="#62CFF8"/>
<stop offset="0.34037" stop-color="#F3B454"/>
<stop offset="0.685289" stop-color="#ED68EF"/>
</linearGradient>
</defs>
</svg>
